<svg width="150" height="132" viewBox="0 0 150 132" fill="none" xmlns="http://www.w3.org/2000/svg">
<path d="M113.105 26.02H37.1055C32.411 26.02 28.6055 29.8256 28.6055 34.52V121.52C28.6055 126.214 32.411 130.02 37.1055 130.02H113.105C117.8 130.02 121.605 126.214 121.605 121.52V34.52C121.605 29.8256 117.8 26.02 113.105 26.02Z" fill="white" stroke="#0D0D0D" stroke-width="3"/>
<path d="M109.652 92.27H40.5584C39.5273 92.27 38.6914 93.1059 38.6914 94.137V94.137C38.6914 95.1681 39.5273 96.004 40.5584 96.004H109.652C110.684 96.004 111.519 95.1681 111.519 94.137C111.519 93.1059 110.684 92.27 109.652 92.27Z" fill="#CBCBCB"/>
<path d="M91.4298 101.004H40.5584C39.5273 101.004 38.6914 101.84 38.6914 102.871V102.871C38.6914 103.902 39.5273 104.738 40.5584 104.738H91.4298C92.4609 104.738 93.2968 103.902 93.2968 102.871C93.2968 101.84 92.4609 101.004 91.4298 101.004Z" fill="#CBCBCB"/>
<path d="M102.185 109.738H40.5584C39.5273 109.738 38.6914 110.574 38.6914 111.605V111.605C38.6914 112.636 39.5273 113.472 40.5584 113.472H102.185C103.216 113.472 104.052 112.636 104.052 111.605C104.052 110.574 103.216 109.738 102.185 109.738Z" fill="#CBCBCB"/>
<path d="M107.519 36.6143H42.6914C40.4823 36.6143 38.6914 38.4051 38.6914 40.6143V81.0851C38.6914 83.2942 40.4823 85.0851 42.6914 85.0851H107.519C109.729 85.0851 111.519 83.2942 111.519 81.0851V40.6143C111.519 38.4051 109.729 36.6143 107.519 36.6143Z" fill="#96FF7B"/>
<path d="M41.9135 46.1426H5.78613C3.02471 46.1426 0.786133 48.3812 0.786133 51.1426V87.27C0.786133 90.0314 3.02471 92.27 5.78613 92.27H41.9135C44.675 92.27 46.9135 90.0314 46.9135 87.27V51.1426C46.9135 48.3812 44.675 46.1426 41.9135 46.1426Z" fill="black"/>
<path d="M34.7713 59.2476L19.833 79.1653L12.9277 72.2597" stroke="white" stroke-width="3" stroke-linecap="round" stroke-linejoin="round"/>
<path d="M117.406 117.263C130.72 117.263 141.514 106.469 141.514 93.1541C141.514 79.8392 130.72 69.0454 117.406 69.0454C104.091 69.0454 93.2969 79.8392 93.2969 93.1541C93.2969 106.469 104.091 117.263 117.406 117.263Z" fill="white" stroke="#0D0D0D" stroke-width="3" stroke-linecap="round" stroke-linejoin="round"/>
<path d="M134.453 110.202L147.213 122.962" stroke="#0D0D0D" stroke-width="3" stroke-linecap="round" stroke-linejoin="round"/>
</svg>
