<svg width="186" height="132" viewBox="0 0 186 132" fill="none" xmlns="http://www.w3.org/2000/svg">
<path d="M133 25.2939H43C36.6487 25.2939 31.5 30.4427 31.5 36.7939V118.794C31.5 125.145 36.6487 130.294 43 130.294H133C139.351 130.294 144.5 125.145 144.5 118.794V36.7939C144.5 30.4427 139.351 25.2939 133 25.2939Z" stroke="#0D0D0D" stroke-width="3"/>
<path d="M49.3086 40.8984V115.187H126.692" stroke="black" stroke-width="3" stroke-linecap="round" stroke-linejoin="round"/>
<path d="M57.8633 88.7202C57.8633 87.0634 59.2064 85.7202 60.8633 85.7202H69.9864C71.6432 85.7202 72.9864 87.0634 72.9864 88.7202V113.685H57.8633V88.7202Z" fill="#EDFF7E"/>
<path d="M82.3506 63.4365C82.3506 61.7797 83.6937 60.4365 85.3506 60.4365H94.4737C96.1305 60.4365 97.4737 61.7797 97.4737 63.4365V113.685H82.3506V63.4365Z" fill="#EDFF7E"/>
<path d="M106.838 43.4009C106.838 41.744 108.181 40.4009 109.838 40.4009H118.961C120.618 40.4009 121.961 41.744 121.961 43.4009V113.685H106.838V43.4009Z" fill="#EDFF7E"/>
<path d="M45.5307 71.8618H6.3305C3.23769 71.8618 0.730469 74.369 0.730469 77.4618V116.662C0.730469 119.755 3.23769 122.262 6.3305 122.262H45.5307C48.6236 122.262 51.1308 119.755 51.1308 116.662V77.4618C51.1308 74.369 48.6236 71.8618 45.5307 71.8618Z" fill="#0D0D0D"/>
<path d="M44.0799 95.8401C44.3335 99.6065 43.4092 103.359 41.435 106.576C39.4608 109.793 36.5346 112.317 33.062 113.797C29.5893 115.277 25.7423 115.64 22.0541 114.836C18.366 114.031 15.0193 112.1 12.4782 109.308C9.93704 106.517 8.32721 103.004 7.87186 99.2567C7.41652 95.5094 8.1382 91.7132 9.93689 88.3945C11.7356 85.0757 14.5222 82.3987 17.9104 80.7345C21.2986 79.0703 25.1206 78.5014 28.8466 79.1067L28.1466 83.416C25.3149 82.9561 22.4101 83.3884 19.8351 84.6532C17.26 85.918 15.1422 87.9525 13.7752 90.4748C12.4082 92.997 11.8597 95.8821 12.2058 98.73C12.5519 101.578 13.7753 104.248 15.7066 106.369C17.6379 108.491 20.1813 109.959 22.9843 110.57C25.7874 111.181 28.7111 110.906 31.3503 109.781C33.9895 108.656 36.2134 106.738 37.7138 104.293C39.2142 101.847 39.9167 98.9959 39.7239 96.1335L44.0799 95.8401Z" fill="white"/>
<path opacity="0.7" d="M28.8566 79.1079C32.9217 79.7705 36.6416 81.7929 39.4078 84.8445C42.174 87.896 43.8228 91.7959 44.0844 95.9063L39.7274 96.1836C39.5286 93.0597 38.2755 90.0958 36.1732 87.7767C34.0708 85.4575 31.2437 83.9204 28.1543 83.4169L28.8566 79.1079Z" fill="white"/>
<path d="M173.442 31.8677H134.242C131.149 31.8677 128.642 34.3749 128.642 37.4677V76.6679C128.642 79.7608 131.149 82.268 134.242 82.268H173.442C176.535 82.268 179.042 79.7608 179.042 76.6679V37.4677C179.042 34.3749 176.535 31.8677 173.442 31.8677Z" fill="#0D0D0D"/>
<path d="M137.887 71.2581C170.097 71.2581 146.04 42.2231 170.097 42.2231" stroke="white" stroke-width="3" stroke-linecap="round"/>
</svg>
