<svg width="145" height="132" viewBox="0 0 145 132" fill="none" xmlns="http://www.w3.org/2000/svg">
<path d="M24.1727 39.583H117.456C122.979 39.583 127.456 44.0602 127.456 49.583V119.833C127.456 125.356 122.979 129.833 117.456 129.833H12.28C6.41372 129.833 1.66235 125.081 1.66235 119.215" stroke="#0D0D0D" stroke-width="3" stroke-miterlimit="10"/>
<path d="M22.8975 108.597V34.2739C22.8975 28.4099 18.1438 23.6562 12.2799 23.6562C6.41361 23.6562 1.66223 28.4076 1.66223 34.2739V119.215" stroke="#0D0D0D" stroke-width="3" stroke-miterlimit="10"/>
<path d="M1.66284 119.215C1.66284 113.349 6.41422 108.597 12.2805 108.597H24.3389" stroke="#0D0D0D" stroke-width="3" stroke-miterlimit="10"/>
<path d="M2.97949 34.0291C2.97949 28.8726 7.15969 24.6924 12.3162 24.6924C17.4728 24.6924 21.653 28.8726 21.653 34.0291V109.075H9.18647C6.75042 109.075 4.4543 110.213 2.97949 112.152V34.0291Z" fill="black"/>
<path d="M110.305 49.6709H38.7129C35.3992 49.6709 32.7129 52.3572 32.7129 55.6709V90.5092C32.7129 93.8229 35.3992 96.5092 38.7129 96.5092H110.305C113.619 96.5092 116.305 93.8229 116.305 90.5092V55.6709C116.305 52.3572 113.619 49.6709 110.305 49.6709Z" fill="#FC8BC8"/>
<path d="M68.721 104.104H34.5799C33.5488 104.104 32.7129 104.94 32.7129 105.971V105.971C32.7129 107.002 33.5488 107.838 34.5799 107.838H68.721C69.7521 107.838 70.588 107.002 70.588 105.971C70.588 104.94 69.7521 104.104 68.721 104.104Z" fill="#CBCBCB"/>
<path d="M114.438 104.104H80.0437C79.0126 104.104 78.1768 104.94 78.1768 105.971V105.971C78.1768 107.002 79.0126 107.838 80.0437 107.838H114.438C115.469 107.838 116.305 107.002 116.305 105.971C116.305 104.94 115.469 104.104 114.438 104.104Z" fill="#CBCBCB"/>
<path d="M57.72 112.838H34.5799C33.5488 112.838 32.7129 113.674 32.7129 114.705V114.705C32.7129 115.736 33.5488 116.572 34.5799 116.572H57.72C58.7511 116.572 59.587 115.736 59.587 114.705C59.587 113.674 58.7511 112.838 57.72 112.838Z" fill="#CBCBCB"/>
<path d="M106.029 112.838H80.0437C79.0126 112.838 78.1768 113.674 78.1768 114.705V114.705C78.1768 115.736 79.0126 116.572 80.0437 116.572H106.029C107.06 116.572 107.896 115.736 107.896 114.705C107.896 113.674 107.06 112.838 106.029 112.838Z" fill="#CBCBCB"/>
<path d="M93.2705 57.8213H139.339C141.824 57.8213 143.839 59.836 143.839 62.3213V107.838C143.839 110.324 141.824 112.338 139.339 112.338H93.2705C90.7852 112.338 88.7705 110.324 88.7705 107.838V62.3213C88.7705 59.836 90.7852 57.8213 93.2705 57.8213Z" fill="#0D0D0D" stroke="black"/>
<path d="M129.935 72.6514L111.292 97.5081L102.675 88.8902" stroke="white" stroke-width="3" stroke-linecap="round" stroke-linejoin="round"/>
</svg>
